<svg width="21" height="21" viewBox="0 0 21 21" fill="none" xmlns="http://www.w3.org/2000/svg">
<g clip-path="url(#clip0_1_279)">
<path d="M15.75 0H5.2503C2.36313 0 0.000427246 2.3627 0.000427246 5.24987V15.7501C0.000427246 18.6365 2.36313 21 5.2503 21H15.75C18.6372 21 20.9999 18.6365 20.9999 15.7501V5.24987C20.9999 2.3627 18.6372 0 15.75 0ZM19.2499 15.7501C19.2499 17.6795 17.6804 19.25 15.75 19.25H5.2503C3.32071 19.25 1.75047 17.6795 1.75047 15.7501V5.24987C1.75047 3.32003 3.32071 1.75004 5.2503 1.75004H15.75C17.6804 1.75004 19.2499 3.32003 19.2499 5.24987V15.7501Z" fill="white"/>
<path d="M16.1882 6.12481C16.9131 6.12481 17.5007 5.5372 17.5007 4.81235C17.5007 4.08749 16.9131 3.49988 16.1882 3.49988C15.4633 3.49988 14.8757 4.08749 14.8757 4.81235C14.8757 5.5372 15.4633 6.12481 16.1882 6.12481Z" fill="white"/>
<path d="M10.5 5.24988C7.59995 5.24988 5.25012 7.59996 5.25012 10.4998C5.25012 13.3985 7.59995 15.7501 10.5 15.7501C13.3992 15.7501 15.7499 13.3985 15.7499 10.4998C15.7499 7.59996 13.3992 5.24988 10.5 5.24988ZM10.5 14.0001C8.56723 14.0001 7.00016 12.433 7.00016 10.4998C7.00016 8.56647 8.56723 6.99992 10.5 6.99992C12.4328 6.99992 13.9998 8.56647 13.9998 10.4998C13.9998 12.433 12.4328 14.0001 10.5 14.0001Z" fill="white"/>
</g>
<defs>
<clipPath id="clip0_1_279">
<rect width="21" height="21" fill="white"/>
</clipPath>
</defs>
</svg>
