<svg width="21" height="21" viewBox="0 0 21 21" fill="none" xmlns="http://www.w3.org/2000/svg">
<path d="M21 21V13.3087C21 9.52875 20.1862 6.64125 15.7762 6.64125C13.65 6.64125 12.2325 7.79625 11.655 8.89875H11.6025V6.9825H7.42875V21H11.7863V14.0437C11.7863 12.2062 12.1275 10.4475 14.385 10.4475C16.6163 10.4475 16.6425 12.5212 16.6425 14.1487V20.9737H21V21ZM0.34125 6.9825H4.69875V21H0.34125V6.9825ZM2.52 0C1.12875 0 0 1.12875 0 2.52C0 3.91125 1.12875 5.06625 2.52 5.06625C3.91125 5.06625 5.04 3.91125 5.04 2.52C5.04 1.12875 3.91125 0 2.52 0Z" fill="white"/>
</svg>
