<svg width="23" height="28" viewBox="0 0 23 28" fill="none" xmlns="http://www.w3.org/2000/svg">
<path d="M11.3637 15.2998C13.5101 15.2998 15.2501 13.5538 15.2501 11.3999C15.2501 9.24605 13.5101 7.5 11.3637 7.5C9.21721 7.5 7.47717 9.24605 7.47717 11.3999C7.47717 13.5538 9.21721 15.2998 11.3637 15.2998Z" stroke="white" stroke-width="2" stroke-linecap="round" stroke-linejoin="round"/>
<path d="M11.3639 1C8.61526 1 5.97915 2.09571 4.03553 4.04609C2.09191 5.99647 1 8.64175 1 11.4C1 13.8596 1.52079 15.469 2.94324 17.25L11.3639 27L19.7846 17.25C21.2071 15.469 21.7279 13.8596 21.7279 11.4C21.7279 8.64175 20.636 5.99647 18.6924 4.04609C16.7487 2.09571 14.1126 1 11.3639 1V1Z" stroke="white" stroke-width="2" stroke-linecap="round" stroke-linejoin="round"/>
</svg>
