<svg width="269" height="75" viewBox="0 0 269 75" fill="none" xmlns="http://www.w3.org/2000/svg">
<path d="M96.2414 48.6014L84.091 34.965V48.6014H75.0875V23.0769H82.6924L94.8428 36.5384V23.0769H103.759V48.6014H96.2414Z" fill="white"/>
<path fill-rule="evenodd" clip-rule="evenodd" d="M135.839 46.5909C134.441 47.5524 133.129 48.1643 131.643 48.6014C130.157 49.0384 127.972 49.4755 124.301 49.4755C118.881 49.4755 115.647 48.2517 113.549 47.0279C112.937 46.5909 111.626 45.8042 110.402 44.3181C107.692 40.9965 107.517 37.6748 107.517 36.0139C107.517 29.6328 111.014 26.3986 113.112 25C115.21 23.5139 118.357 22.2028 124.038 22.2028C125.175 22.2028 126.311 22.2028 127.448 22.2902C134.178 22.8146 137.325 25.5244 139.161 27.972C139.948 29.1958 141.434 31.9056 141.434 35.7517C141.434 38.0244 140.997 43.0944 135.839 46.5909ZM129.72 29.6328C129.371 29.2832 128.497 28.6713 127.273 28.2342C126.661 27.972 125.962 27.7972 124.563 27.7972C123.427 27.7972 122.465 27.972 121.329 28.4091C118.269 29.6328 116.958 32.7797 116.958 35.8391C116.958 36.2762 116.958 37.5874 117.483 38.986C118.969 43.444 123.077 43.7937 124.65 43.7937C125.087 43.7937 126.661 43.7937 128.059 43.1818C130.944 41.958 132.08 38.7237 132.08 35.8391C132.08 32.5174 130.682 30.507 129.72 29.6328Z" fill="white"/>
<path d="M145.28 48.6014V23.0769H154.37V42.3951H167.395V48.6014H145.28Z" fill="white"/>
<path d="M170.542 48.6014V23.0769H179.72V42.3951H192.745V48.6014H170.542Z" fill="white"/>
<path fill-rule="evenodd" clip-rule="evenodd" d="M217.919 48.6014L216.52 44.4056H206.818L205.419 48.6014H195.454L206.468 23.0769H216.783L227.884 48.6014H217.919ZM211.625 30.1573L208.653 38.8112H214.597L211.625 30.1573Z" fill="white"/>
<path d="M259.353 48.6014V32.2552L253.322 48.6014H246.241L240.297 32.3426V48.6014H231.294V23.0769H243.444L249.825 39.7727L256.206 23.0769H268.269V48.6014H259.353Z" fill="white"/>
<path d="M92.2204 70.8908C92.0456 71.3278 91.6085 72.0271 90.7344 72.8138C89.5106 73.8628 87.5876 74.9992 83.9162 74.9992C83.1295 74.9992 80.1575 74.9992 77.8848 73.2509C75.175 71.2404 75.0876 68.181 75.0876 67.132C75.0876 65.5586 75.4372 63.9852 76.2239 62.7614C76.5736 62.3243 76.8358 61.9747 77.1855 61.625C77.7099 61.188 77.9722 61.0131 78.2344 60.8383C79.1959 60.139 81.2064 59.2649 84.1785 59.2649C84.9652 59.2649 87.7624 59.3523 90.1225 60.9257C91.3463 61.7124 92.0456 62.7614 92.3078 63.2859C92.4244 63.4607 92.5118 63.6647 92.5701 63.8978L88.5491 64.3348C88.3743 63.9852 87.9372 63.3733 87.0631 62.8488C86.626 62.4992 85.5771 61.9747 84.1785 61.9747C83.7414 61.9747 82.7799 61.9747 81.8183 62.4118C79.8952 63.1985 78.8463 65.0341 78.8463 67.132C78.8463 68.181 79.1959 69.3173 79.8078 70.1915C79.8952 70.3663 80.2449 70.7159 80.7694 71.0656C81.2938 71.5901 82.4302 72.2894 84.2659 72.2894C86.3638 72.2894 87.5876 71.4152 88.112 70.7159C88.3743 70.4537 88.5491 70.1915 88.8987 69.4922H92.7449C92.5701 70.1915 92.4827 70.5411 92.2204 70.8908Z" fill="#29B357"/>
<path fill-rule="evenodd" clip-rule="evenodd" d="M116.083 68.8812C115.821 69.8427 115.297 71.9406 113.024 73.5141C111.975 74.1259 110.139 75.0001 107.167 75.0001C102.797 75.0001 100.524 73.1644 99.3876 71.6784C98.9505 70.8917 98.0764 69.4057 98.0764 67.1329C98.0764 63.7238 99.7373 61.8882 100.874 61.1015C102.447 59.8777 104.632 59.3532 106.555 59.2658C108.479 59.1784 110.664 59.528 112.325 60.3148C112.5 60.4022 112.937 60.6644 113.461 61.014C113.898 61.3637 114.335 61.7134 114.685 62.1504C115.297 62.8497 116.258 64.5106 116.258 66.9581C116.258 67.3078 116.258 68.0071 116.083 68.8812ZM111.101 63.549C110.139 62.4127 108.479 61.8882 106.993 61.8882C106.643 61.9756 105.769 61.9756 104.895 62.4127C102.097 63.6364 101.923 66.2588 101.923 67.2203C101.923 67.4826 101.923 68.4441 102.272 69.3182C102.447 69.6679 102.534 69.9301 102.884 70.3672C102.972 70.4546 103.234 70.8917 103.583 71.2413C104.195 71.6784 105.332 72.2903 107.167 72.2903C107.517 72.2903 108.391 72.2903 109.265 71.9406C112.237 70.8917 112.412 68.0945 112.412 67.1329C112.412 66.521 112.412 64.8602 111.101 63.549Z" fill="#29B357"/>
<path d="M135.752 74.4756L126.661 64.1609V74.4756H123.077V59.7029H126.836L135.839 70.0176V59.7029H139.423V74.4756H135.752Z" fill="#29B357"/>
<path d="M154.895 62.4127V74.4756H151.136V62.4127H145.629V59.7029H160.314V62.4127H154.895Z" fill="#29B357"/>
<path fill-rule="evenodd" clip-rule="evenodd" d="M178.409 74.4756L174.475 68.5316H170.279V74.4756H166.521V59.7029H176.748C177.972 59.7029 178.584 59.7903 179.196 59.9651C181.119 60.577 182.168 62.2379 182.168 64.1609C182.168 64.5106 182.08 65.2973 181.731 66.084C181.031 67.57 179.807 68.0945 178.234 68.3567L182.78 74.4756H178.409ZM178.059 63.112C177.622 62.3253 176.835 62.3253 176.049 62.3253H170.279V65.9092H176.136C176.224 65.9092 176.748 65.9966 177.098 65.9092C177.535 65.8218 178.409 65.3847 178.409 64.1609C178.409 64.0735 178.321 63.4616 178.059 63.112Z" fill="#29B357"/>
<path fill-rule="evenodd" clip-rule="evenodd" d="M201.923 74.4756L200.611 71.6784H193.094L191.783 74.4756H187.762L194.93 59.7029H198.863L206.031 74.4756H201.923ZM196.853 63.3742L194.318 69.1434H199.475L196.853 63.3742Z" fill="#29B357"/>
<path d="M227.622 70.8916C227.448 71.3287 227.011 72.028 226.136 72.8147C224.913 73.8636 222.99 75 219.318 75C218.444 75 215.559 75 213.287 73.2518C210.577 71.2413 210.49 68.1818 210.49 67.1329C210.49 65.5595 210.839 63.986 211.626 62.7623C211.976 62.3252 212.238 61.9755 212.587 61.6259C213.112 61.1888 213.374 61.014 213.636 60.8392C214.598 60.1399 216.608 59.2657 219.493 59.2657C220.367 59.2657 223.164 59.3532 225.525 60.9266C226.748 61.7133 227.448 62.7623 227.71 63.2867C227.826 63.4616 227.914 63.6655 227.972 63.8986L223.951 64.3357C223.776 63.986 223.339 63.3741 222.465 62.8497C222.028 62.5 220.979 61.9755 219.493 61.9755C219.143 61.9755 218.182 61.9755 217.22 62.4126C215.297 63.1993 214.248 65.035 214.248 67.1329C214.248 68.1818 214.598 69.3182 215.21 70.1923C215.297 70.3671 215.647 70.7168 216.084 71.0664C216.696 71.5909 217.832 72.2902 219.668 72.2902C221.766 72.2902 222.902 71.4161 223.514 70.7168C223.776 70.4546 223.951 70.1923 224.301 69.493H228.147C227.972 70.1923 227.797 70.542 227.622 70.8916Z" fill="#29B357"/>
<path d="M242.046 62.4127V74.4756H238.287V62.4127H232.867V59.7029H247.465V62.4127H242.046Z" fill="#29B357"/>
<path d="M264.773 63.7238C264.656 63.4324 264.569 63.2576 264.511 63.1993C263.549 62.1504 261.801 61.8881 260.577 61.8881C260.315 61.8881 259.878 61.8881 259.266 61.9755C259.178 61.9755 257.255 62.1504 257.255 63.6364C257.255 64.3357 257.78 64.6853 258.392 64.8602C259.441 65.2098 262.063 65.5595 263.112 65.8217C264.161 65.9965 264.685 66.0839 265.122 66.2588C265.997 66.521 268.182 67.3077 268.094 70.0175C268.094 71.4161 267.657 73.514 264.598 74.4755C263.811 74.7378 263.025 74.8252 262.15 74.9126C261.626 74.9709 261.101 75 260.577 75C257.955 75 256.556 74.3881 255.507 73.8637C255.332 73.7762 254.895 73.514 254.458 73.1644C253.671 72.5525 253.06 71.6783 252.885 71.4161C252.768 71.2413 252.652 71.0373 252.535 70.8042L255.944 69.9301C256.818 71.7658 259.091 72.2028 260.839 72.2028C261.014 72.2028 262.85 72.2902 263.899 71.5909C264.073 71.4161 264.598 71.0665 264.598 70.2797C264.598 69.9301 264.423 69.5804 264.074 69.3182C263.636 68.9685 262.675 68.7937 261.364 68.6189C258.654 68.1818 257.168 68.007 255.944 67.3951C255.332 67.1329 253.671 66.1713 253.671 63.8986C253.671 61.8881 254.895 60.9266 255.42 60.5769C256.381 59.8776 257.955 59.2657 260.577 59.2657C263.025 59.2657 264.423 59.7028 265.472 60.2273C265.822 60.4021 266.521 60.7518 267.308 61.4511C267.745 61.9755 267.92 62.2378 268.269 62.8497L264.773 63.7238Z" fill="#29B357"/>
<path d="M56.9056 23.3392L28.4091 0L19.8427 6.99301L48.1643 30.2448V66.0839H41.4336L19.3182 47.9895V66.0839H8.74126V30.2448H15.6469L37.5874 48.2517V36.2762L10.8392 14.4231L0 23.3392V75H56.9056V23.3392Z" fill="#29B357"/>
</svg>
