<svg width="20" height="21" viewBox="0 0 20 21" fill="none" xmlns="http://www.w3.org/2000/svg">
<path d="M11 6.021C11.7956 6.021 12.5587 6.33815 13.1213 6.90268C13.6839 7.46721 14 8.23288 14 9.03125C14 9.29737 14.1054 9.5526 14.2929 9.74077C14.4804 9.92895 14.7348 10.0347 15 10.0347C15.2652 10.0347 15.5196 9.92895 15.7071 9.74077C15.8946 9.5526 16 9.29737 16 9.03125C16 7.70063 15.4732 6.42452 14.5355 5.48363C13.5979 4.54274 12.3261 4.01416 11 4.01416C10.7348 4.01416 10.4804 4.11988 10.2929 4.30805C10.1054 4.49623 10 4.75146 10 5.01758C10 5.2837 10.1054 5.53892 10.2929 5.7271C10.4804 5.91528 10.7348 6.021 11 6.021Z" fill="#30B457"/>
<path d="M11 2.00693C12.8565 2.00693 14.637 2.74699 15.9497 4.06429C17.2625 5.3816 18 7.16825 18 9.0312C18 9.29734 18.1054 9.55257 18.2929 9.74076C18.4804 9.92895 18.7348 10.0347 19 10.0347C19.2652 10.0347 19.5196 9.92895 19.7071 9.74076C19.8946 9.55257 20 9.29734 20 9.0312C20 6.63598 19.0518 4.33886 17.364 2.64518C15.6761 0.951499 13.3869 0 11 0C10.7348 0 10.4804 0.105722 10.2929 0.293909C10.1054 0.482095 10 0.737331 10 1.00347C10 1.2696 10.1054 1.52484 10.2929 1.71303C10.4804 1.90121 10.7348 2.00693 11 2.00693ZM19.75 13.9582C19.695 13.7971 19.6 13.6527 19.4741 13.5386C19.3481 13.4245 19.1953 13.3445 19.03 13.306L13.03 11.9312C12.8671 11.8942 12.6976 11.8986 12.5369 11.9442C12.3762 11.9898 12.2294 12.075 12.11 12.1921C11.97 12.3226 11.96 12.3326 11.31 13.5769C9.1532 12.5796 7.42499 10.8383 6.44 8.66995C7.71 8.02773 7.72 8.02773 7.85 7.87721C7.96671 7.75736 8.05165 7.61008 8.09706 7.44882C8.14248 7.28756 8.14693 7.11745 8.11 6.95403L6.74 1.00347C6.70164 0.83759 6.62186 0.684235 6.50814 0.557839C6.39443 0.431443 6.25053 0.336164 6.09 0.280971C5.85647 0.197271 5.61531 0.136773 5.37 0.100347C5.11725 0.0415387 4.85933 0.00792673 4.6 0C3.38 0 2.20998 0.486322 1.34731 1.35198C0.484641 2.21764 0 3.39172 0 4.61595C0.00529192 8.71281 1.62949 12.6404 4.5164 15.5373C7.40331 18.4342 11.3173 20.064 15.4 20.0693C16.0041 20.0693 16.6022 19.9499 17.1603 19.718C17.7184 19.486 18.2255 19.146 18.6527 18.7174C19.0798 18.2887 19.4187 17.7799 19.6498 17.2198C19.881 16.6598 20 16.0596 20 15.4534C20.0003 15.198 19.9802 14.943 19.94 14.6908C19.898 14.4415 19.8344 14.1964 19.75 13.9582ZM15.4 18.0624C11.8469 18.0597 8.44011 16.6422 5.92769 14.1211C3.41528 11.6 2.00265 8.18135 2 4.61595C2.00263 3.92481 2.27741 3.26273 2.76443 2.77402C3.25146 2.2853 3.91125 2.00958 4.6 2.00693H4.93L6 6.66302L5.46 6.94399C4.6 7.39555 3.92 7.7568 4.28 8.5395C4.86622 10.2048 5.81477 11.7182 7.05673 12.9697C8.2987 14.2212 9.80288 15.1793 11.46 15.7745C12.3 16.1157 12.63 15.4835 13.08 14.6105L13.37 14.0586L18 15.1222V15.4534C17.9974 16.1445 17.7226 16.8066 17.2356 17.2953C16.7485 17.784 16.0887 18.0598 15.4 18.0624Z" fill="#30B457"/>
</svg>
