<svg width="39" height="40" viewBox="0 0 39 40" fill="none" xmlns="http://www.w3.org/2000/svg">
<path d="M12.2187 26.8004C11.0821 27.6892 10.163 28.8252 9.53098 30.1222C8.89898 31.4192 8.57074 32.8431 8.57118 34.2859V37.143H2.85706C1.27615 37.143 0 35.8668 0 34.2859V32.3812C0 28.6956 2.98087 25.7147 6.66647 25.7147H8.57118C9.92352 25.7147 11.1711 26.1147 12.2187 26.8004Z" fill="white"/>
<path d="M30.4753 25.7147C32.8422 25.7147 34.7609 23.7959 34.7609 21.4291C34.7609 19.0622 32.8422 17.1435 30.4753 17.1435C28.1085 17.1435 26.1898 19.0622 26.1898 21.4291C26.1898 23.7959 28.1085 25.7147 30.4753 25.7147Z" fill="white"/>
<path d="M7.61884 25.7147C9.98571 25.7147 11.9044 23.7959 11.9044 21.4291C11.9044 19.0622 9.98571 17.1435 7.61884 17.1435C5.25198 17.1435 3.33325 19.0622 3.33325 21.4291C3.33325 23.7959 5.25198 25.7147 7.61884 25.7147Z" fill="white"/>
<path d="M38.0941 32.3812V34.2859C38.0941 35.8668 36.818 37.143 35.2371 37.143H29.5229V34.2859C29.5229 31.2479 28.0944 28.5432 25.8754 26.8004C26.923 26.1147 28.1706 25.7147 29.5229 25.7147H31.4276C35.1133 25.7147 38.0941 28.6956 38.0941 32.3812Z" fill="white"/>
<path d="M19.047 26.667C21.9399 26.667 24.285 24.3219 24.285 21.4291C24.285 18.5363 21.9399 16.1912 19.047 16.1912C16.1542 16.1912 13.8091 18.5363 13.8091 21.4291C13.8091 24.3219 16.1542 26.667 19.047 26.667Z" fill="white"/>
<path d="M19.9994 26.6671H18.0947C13.8938 26.6671 10.4758 30.0851 10.4758 34.2859V37.1429C10.4758 38.7181 11.7577 40 13.3329 40H24.7611C26.3363 40 27.6182 38.7181 27.6182 37.1429V34.2859C27.6182 30.0851 24.2002 26.6671 19.9994 26.6671ZM32.8562 13.0332L30.5581 13.8503C30.4074 13.9039 30.2458 13.9199 30.0875 13.8971C29.9291 13.8742 29.7787 13.8131 29.6493 13.719C29.5198 13.6249 29.4153 13.5008 29.3447 13.3572C29.274 13.2136 29.2394 13.055 29.2439 12.8951L29.3105 10.457L27.823 8.52377C27.7255 8.39691 27.6604 8.24823 27.6332 8.09057C27.6061 7.93291 27.6177 7.771 27.6671 7.61884C27.7165 7.46668 27.8022 7.32883 27.9168 7.2172C28.0314 7.10557 28.1714 7.02351 28.3249 6.9781L30.6648 6.2886L32.0438 4.27628C32.1342 4.14428 32.2555 4.03631 32.397 3.96171C32.5386 3.88711 32.6961 3.84812 32.8562 3.84812C33.0162 3.84812 33.1737 3.88711 33.3153 3.96171C33.4568 4.03631 33.5781 4.14428 33.6685 4.27628L35.0475 6.2886L37.3874 6.9781C38.0512 7.17334 38.3112 7.97522 37.8893 8.52377L36.4018 10.457L36.4684 12.8951C36.4726 13.0549 36.4379 13.2134 36.3672 13.3569C36.2965 13.5003 36.192 13.6244 36.0626 13.7184C35.9332 13.8124 35.7829 13.8736 35.6247 13.8966C35.4664 13.9195 35.3049 13.9036 35.1542 13.8503L32.8562 13.0332ZM5.23791 13.0332L2.93988 13.8503C2.78912 13.9039 2.62757 13.9199 2.46922 13.8971C2.31086 13.8742 2.16046 13.8131 2.03103 13.719C1.9016 13.6249 1.79705 13.5008 1.72641 13.3572C1.65577 13.2136 1.62118 13.055 1.62563 12.8951L1.69229 10.457L0.204719 8.52377C0.107252 8.39691 0.0421298 8.24823 0.0149747 8.09057C-0.0121804 7.93291 -0.000551974 7.771 0.0488559 7.61884C0.0982638 7.46668 0.183966 7.32883 0.298562 7.2172C0.413159 7.10557 0.553206 7.02351 0.706609 6.9781L3.04654 6.2886L4.42555 4.27628C4.51598 4.14428 4.63722 4.03631 4.77876 3.96171C4.92031 3.88711 5.0779 3.84812 5.23791 3.84812C5.39791 3.84812 5.5555 3.88711 5.69705 3.96171C5.83859 4.03631 5.95983 4.14428 6.05026 4.27628L7.42927 6.2886L9.7692 6.9781C10.433 7.17334 10.693 7.97522 10.2711 8.52377L8.78352 10.457L8.85018 12.8951C8.8544 13.0549 8.81966 13.2134 8.74896 13.3569C8.67826 13.5003 8.57371 13.6244 8.44435 13.7184C8.31499 13.8124 8.16469 13.8736 8.00643 13.8966C7.84817 13.9195 7.68669 13.9036 7.53593 13.8503L5.23791 13.0332ZM19.047 10.8904L16.3223 11.8589C16.1436 11.9224 15.9521 11.9414 15.7644 11.9143C15.5767 11.8872 15.3984 11.8147 15.245 11.7032C15.0916 11.5917 14.9676 11.4445 14.8839 11.2743C14.8001 11.1042 14.7591 10.9162 14.7643 10.7266L14.8433 7.83617L13.0796 5.54386C12.9641 5.39345 12.8869 5.21717 12.8547 5.03026C12.8225 4.84335 12.8363 4.65142 12.8949 4.47104C12.9535 4.29066 13.0552 4.12725 13.191 3.99492C13.3269 3.8626 13.4929 3.76534 13.6748 3.71153L16.449 2.89346L18.0842 0.507814C18.1914 0.351267 18.3352 0.22321 18.503 0.134726C18.6709 0.046243 18.8578 0 19.0475 0C19.2372 0 19.4241 0.046243 19.592 0.134726C19.7598 0.22321 19.9036 0.351267 20.0108 0.507814L21.646 2.89346L24.4202 3.71153C24.6021 3.76534 24.7681 3.8626 24.904 3.99492C25.0399 4.12725 25.1415 4.29066 25.2001 4.47104C25.2587 4.65142 25.2725 4.84335 25.2403 5.03026C25.2081 5.21717 25.131 5.39345 25.0154 5.54386L23.2517 7.83617L23.3307 10.7266C23.3359 10.9162 23.2949 11.1042 23.2111 11.2743C23.1274 11.4445 23.0034 11.5917 22.85 11.7032C22.6966 11.8147 22.5183 11.8872 22.3306 11.9143C22.1429 11.9414 21.9514 11.9224 21.7727 11.8589L19.047 10.8904Z" fill="white"/>
</svg>
