<svg width="18" height="23" viewBox="0 0 18 23" fill="none" xmlns="http://www.w3.org/2000/svg">
<path d="M9 12.0383C10.6569 12.0383 12 10.6905 12 9.02795C12 7.36537 10.6569 6.01758 9 6.01758C7.34315 6.01758 6 7.36537 6 9.02795C6 10.6905 7.34315 12.0383 9 12.0383Z" stroke="#30B457" stroke-width="2" stroke-linecap="round" stroke-linejoin="round"/>
<path d="M9 1C6.87827 1 4.84344 1.84579 3.34315 3.3513C1.84285 4.85681 1 6.89872 1 9.02783C1 10.9264 1.402 12.1687 2.5 13.5435L9 21.0696L15.5 13.5435C16.598 12.1687 17 10.9264 17 9.02783C17 6.89872 16.1571 4.85681 14.6569 3.3513C13.1566 1.84579 11.1217 1 9 1V1Z" stroke="#30B457" stroke-width="2" stroke-linecap="round" stroke-linejoin="round"/>
</svg>
