<svg width="40" height="40" viewBox="0 0 40 40" fill="none" xmlns="http://www.w3.org/2000/svg">
<path d="M31.6667 17C34.4281 17 36.6667 14.7614 36.6667 12C36.6667 9.23858 34.4281 7 31.6667 7C28.9052 7 26.6667 9.23858 26.6667 12C26.6667 14.7614 28.9052 17 31.6667 17Z" fill="white"/>
<path d="M8.33334 17C11.0948 17 13.3333 14.7614 13.3333 12C13.3333 9.23858 11.0948 7 8.33334 7C5.57191 7 3.33334 9.23858 3.33334 12C3.33334 14.7614 5.57191 17 8.33334 17Z" fill="white"/>
<path d="M20 15.3333C23.6819 15.3333 26.6667 12.3486 26.6667 8.66667C26.6667 4.98477 23.6819 2 20 2C16.3181 2 13.3333 4.98477 13.3333 8.66667C13.3333 12.3486 16.3181 15.3333 20 15.3333Z" fill="white"/>
<path d="M36.6667 18.6666H30.7708C31.3587 19.6791 31.6678 20.8292 31.6667 22V33.6666H38.3333C38.7754 33.6666 39.1993 33.4911 39.5118 33.1785C39.8244 32.8659 40 32.442 40 32V22C40 21.1159 39.6488 20.2681 39.0237 19.643C38.3986 19.0178 37.5507 18.6666 36.6667 18.6666ZM9.23021 18.6666H3.33333C2.44928 18.6666 1.60143 19.0178 0.976311 19.643C0.35119 20.2681 0 21.1159 0 22L0 32C0 32.442 0.175595 32.8659 0.488155 33.1785C0.800716 33.4911 1.22464 33.6666 1.66667 33.6666H8.33333V22C8.33249 20.8291 8.64195 19.679 9.23021 18.6666ZM25 15.3333H23.3333L20 25.3333L16.6667 15.3333H15C13.6739 15.3333 12.4021 15.8601 11.4645 16.7978C10.5268 17.7355 10 19.0072 10 20.3333V35.3333C10 35.7753 10.1756 36.1993 10.4882 36.5118C10.8007 36.8244 11.2246 37 11.6667 37H28.3333C28.7754 37 29.1993 36.8244 29.5118 36.5118C29.8244 36.1993 30 35.7753 30 35.3333V20.3333C30 19.0072 29.4732 17.7355 28.5355 16.7978C27.5979 15.8601 26.3261 15.3333 25 15.3333Z" fill="white"/>
</svg>
