<svg width="40" height="40" viewBox="0 0 40 40" fill="none" xmlns="http://www.w3.org/2000/svg">
<g clip-path="url(#clip0_1_259)">
<path d="M5.83925 25.6311C5.72886 25.8513 5.69057 26.1006 5.72979 26.3437C5.76901 26.5869 5.88375 26.8115 6.05777 26.9858L6.34433 27.2724C7.1723 26.2912 8.1373 25.2264 9.30761 24.0564C9.39027 23.9737 9.47543 23.9338 9.55839 23.8575L7.71488 22.0135C6.64308 23.9521 6.01808 25.2765 5.83925 25.6311ZM15.9366 30.6854C14.7636 31.8585 13.7014 32.8253 12.7259 33.6539L13.114 34.0421C13.2895 34.2177 13.5162 34.333 13.7614 34.3714C14.0066 34.4098 14.2577 34.3693 14.4785 34.2557C15.0855 33.9429 16.04 33.4937 18.0664 32.3651L16.136 30.4346C16.0596 30.5179 16.0196 30.6028 15.9366 30.6854ZM15.3119 24.6827C14.465 23.8358 12.0835 24.595 10.9647 25.7135C7.22199 29.4562 5.53168 32.1096 4.77269 33.6765C4.66654 33.8955 4.63125 34.1421 4.67171 34.3821C4.71218 34.6221 4.82639 34.8435 4.99847 35.0156C5.17082 35.1879 5.39257 35.3022 5.63291 35.3427C5.87324 35.3832 6.12022 35.3477 6.33949 35.2414C7.87113 34.4977 10.4923 32.8153 14.2795 29.0283C15.5096 27.7976 16.1167 25.4877 15.3128 24.6835L15.3119 24.6827ZM3.65785 15.6024L0.343393 18.9171C0.160985 19.0994 0.0438651 19.3369 0.0102036 19.5927C-0.0234579 19.8484 0.0282203 20.1081 0.157221 20.3315C0.416284 20.785 0.958862 21.016 1.47519 20.8778C3.2666 20.3974 4.84285 20.1945 5.90425 20.4667C7.41425 17.7821 9.03691 15.3108 10.7553 13.066C9.76136 12.4287 6.47675 12.7836 3.65785 15.6025V15.6024ZM19.8356 39.8742C20.0556 39.9854 20.3051 40.0242 20.5485 39.9852C20.7919 39.9461 21.0167 39.8311 21.1908 39.6567L24.5057 36.3422C27.0719 33.7753 27.5236 30.4636 26.9413 29.4135C24.4376 31.3004 21.9013 32.8937 19.535 34.2276C19.6982 35.1496 19.5896 36.044 19.2036 38.6564C19.1671 38.9001 19.2086 39.1491 19.3221 39.3678C19.4356 39.5865 19.6153 39.7637 19.8356 39.8742ZM23.2657 11.7554C21.8952 13.1263 21.8952 15.3562 23.2657 16.727C24.6366 18.0978 26.8668 18.0978 28.2376 16.727C29.6084 15.3561 29.6085 13.1262 28.2376 11.7554C26.8668 10.3846 24.6366 10.3846 23.2657 11.7554H23.2657ZM39.9311 1.14323C39.8889 0.563698 39.4275 0.105651 38.8498 0.0622916C35.9717 -0.154427 33.1049 0.199635 30.2948 1.05901C30.5063 2.98948 31.5049 5.07878 33.2096 6.78346C34.9347 8.50831 37.0807 9.50659 39.0457 9.69331C39.8026 7.04104 40.1614 4.2005 39.9311 1.14323Z" fill="white"/>
<path d="M31.5524 8.44087C29.6024 6.49079 28.4115 4.15196 28.0294 1.87469C20.9924 4.76079 14.256 11.0632 8.9328 19.917L11.5774 22.5617C13.3844 21.8281 15.578 21.6342 16.9693 23.0252C18.3624 24.4187 18.165 26.6113 17.4316 28.4159L20.1633 31.1475C26.9754 27.042 34.9062 20.5738 38.2788 11.9681C35.946 11.6156 33.5343 10.4227 31.5524 8.44087ZM29.8947 18.3844C27.6105 20.6687 23.8931 20.6687 21.6086 18.3844C19.324 16.0999 19.324 12.3822 21.6086 10.098C23.8931 7.81376 27.6105 7.81376 29.8947 10.098C32.1793 12.3825 32.1793 16.0999 29.8947 18.3844Z" fill="white"/>
</g>
<defs>
<clipPath id="clip0_1_259">
<rect width="40" height="40" fill="white"/>
</clipPath>
</defs>
</svg>
