<svg width="40" height="40" viewBox="0 0 40 40" fill="none" xmlns="http://www.w3.org/2000/svg">
<g clip-path="url(#clip0_1_241)">
<path d="M11.25 21.855C12.2745 21.855 13.105 21.0245 13.105 20C13.105 18.9755 12.2745 18.145 11.25 18.145C10.2255 18.145 9.39499 18.9755 9.39499 20C9.39499 21.0245 10.2255 21.855 11.25 21.855Z" fill="white"/>
<path d="M21.0488 17.3275L20.0163 17.07C19.8794 16.6602 19.714 16.2605 19.5213 15.8738L20.0675 14.9613C20.2878 14.5949 20.3791 14.1654 20.327 13.7411C20.2749 13.3168 20.0824 12.9222 19.78 12.62L18.63 11.47C18.328 11.1678 17.9336 10.9752 17.5095 10.9231C17.0855 10.871 16.6562 10.9623 16.29 11.1825L15.3775 11.73C14.9908 11.5369 14.5911 11.371 14.1813 11.2338L13.9238 10.2025C13.8208 9.78704 13.5815 9.41811 13.244 9.15477C12.9066 8.89144 12.4905 8.74891 12.0625 8.75001H10.4375C10.0099 8.74912 9.59424 8.8916 9.25708 9.15467C8.91991 9.41774 8.68065 9.78623 8.57751 10.2013L8.32001 11.2338C7.91019 11.3706 7.51046 11.536 7.12376 11.7288L6.21126 11.1825C5.84484 10.9625 5.41538 10.8712 4.99115 10.9233C4.56693 10.9754 4.1723 11.1678 3.87001 11.47L2.72001 12.62C2.41775 12.922 2.22524 13.3164 2.17314 13.7405C2.12104 14.1645 2.21234 14.5938 2.43251 14.96L2.97876 15.8725C2.78609 16.2588 2.62069 16.6581 2.48376 17.0675L1.45251 17.3263C1.03704 17.4292 0.668111 17.6686 0.404774 18.006C0.141437 18.3434 -0.00108879 18.7595 6.26333e-06 19.1875V20.8125C-0.000598092 21.2399 0.142005 21.6553 0.405054 21.9922C0.668103 22.3291 1.03643 22.5682 1.45126 22.6713L2.48376 22.93C2.62069 23.3394 2.78609 23.7387 2.97876 24.125L2.43251 25.0375C2.21193 25.404 2.1204 25.8338 2.17251 26.2583C2.22461 26.6829 2.41736 27.0777 2.72001 27.38L3.87001 28.53C4.17175 28.8326 4.56622 29.0254 4.9904 29.0775C5.41457 29.1297 5.84398 29.0381 6.21001 28.8175L7.12251 28.27C7.50878 28.4631 7.90808 28.6289 8.31751 28.7663L8.57626 29.7975C8.67921 30.213 8.91856 30.5819 9.256 30.8452C9.59344 31.1086 10.0095 31.2511 10.4375 31.25H12.0625C12.4899 31.2506 12.9053 31.108 13.2422 30.845C13.5791 30.5819 13.8182 30.2136 13.9213 29.7988L14.18 28.7663C14.5894 28.6293 14.9887 28.4639 15.375 28.2713L16.2875 28.8175C16.6542 29.0374 17.0838 29.1286 17.5082 29.0765C17.9326 29.0244 18.3274 28.8321 18.63 28.53L19.78 27.38C20.0823 27.078 20.2748 26.6836 20.3269 26.2595C20.379 25.8355 20.2877 25.4062 20.0675 25.04L19.52 24.1275C19.7132 23.7408 19.879 23.3411 20.0163 22.9313L21.0475 22.6725C21.4628 22.5696 21.8315 22.3304 22.0949 21.9933C22.3582 21.6561 22.5008 21.2403 22.5 20.8125V19.1875C22.5009 18.7599 22.3584 18.3442 22.0953 18.0071C21.8323 17.6699 21.4638 17.4306 21.0488 17.3275ZM11.25 24.355C10.3887 24.355 9.54667 24.0996 8.8305 23.6211C8.11432 23.1425 7.55613 22.4624 7.22651 21.6666C6.89689 20.8708 6.81065 19.9952 6.97869 19.1504C7.14673 18.3056 7.5615 17.5296 8.17056 16.9206C8.77961 16.3115 9.5556 15.8967 10.4004 15.7287C11.2452 15.5606 12.1208 15.6469 12.9166 15.9765C13.7124 16.3061 14.3925 16.8643 14.8711 17.5805C15.3496 18.2967 15.605 19.1387 15.605 20C15.6037 21.1546 15.1444 22.2616 14.328 23.078C13.5116 23.8944 12.4046 24.3537 11.25 24.355Z" fill="white"/>
<path d="M37.5 0H32.5C31.1193 0 30 1.11929 30 2.5V7.5C30 8.88071 31.1193 10 32.5 10H37.5C38.8807 10 40 8.88071 40 7.5V2.5C40 1.11929 38.8807 0 37.5 0Z" fill="white"/>
<path d="M37.5 15H32.5C31.1193 15 30 16.1193 30 17.5V22.5C30 23.8807 31.1193 25 32.5 25H37.5C38.8807 25 40 23.8807 40 22.5V17.5C40 16.1193 38.8807 15 37.5 15Z" fill="white"/>
<path d="M37.5 30H32.5C31.1193 30 30 31.1193 30 32.5V37.5C30 38.8807 31.1193 40 32.5 40H37.5C38.8807 40 40 38.8807 40 37.5V32.5C40 31.1193 38.8807 30 37.5 30Z" fill="white"/>
<path d="M31.25 21.25H21.25C20.9185 21.25 20.6005 21.1183 20.3661 20.8839C20.1317 20.6495 20 20.3315 20 20C20 19.6685 20.1317 19.3505 20.3661 19.1161C20.6005 18.8817 20.9185 18.75 21.25 18.75H31.25C31.5815 18.75 31.8995 18.8817 32.1339 19.1161C32.3683 19.3505 32.5 19.6685 32.5 20C32.5 20.3315 32.3683 20.6495 32.1339 20.8839C31.8995 21.1183 31.5815 21.25 31.25 21.25Z" fill="white"/>
<path d="M26.25 21.25C25.9185 21.25 25.6005 21.1183 25.3661 20.8839C25.1317 20.6495 25 20.3315 25 20V6.25C25.0007 5.58716 25.2643 4.95166 25.733 4.48296C26.2017 4.01427 26.8372 3.75066 27.5 3.75H31.25C31.5815 3.75 31.8995 3.8817 32.1339 4.11612C32.3683 4.35054 32.5 4.66848 32.5 5C32.5 5.33152 32.3683 5.64946 32.1339 5.88388C31.8995 6.1183 31.5815 6.25 31.25 6.25H27.5V20C27.5 20.3315 27.3683 20.6495 27.1339 20.8839C26.8995 21.1183 26.5815 21.25 26.25 21.25Z" fill="white"/>
<path d="M31.25 36.25H27.5C26.8372 36.2493 26.2017 35.9857 25.733 35.517C25.2643 35.0483 25.0007 34.4128 25 33.75V20C25 19.6685 25.1317 19.3505 25.3661 19.1161C25.6005 18.8817 25.9185 18.75 26.25 18.75C26.5815 18.75 26.8995 18.8817 27.1339 19.1161C27.3683 19.3505 27.5 19.6685 27.5 20V33.75H31.25C31.5815 33.75 31.8995 33.8817 32.1339 34.1161C32.3683 34.3505 32.5 34.6685 32.5 35C32.5 35.3315 32.3683 35.6495 32.1339 35.8839C31.8995 36.1183 31.5815 36.25 31.25 36.25Z" fill="white"/>
</g>
<defs>
<clipPath id="clip0_1_241">
<rect width="40" height="40" fill="white"/>
</clipPath>
</defs>
</svg>
